<?xml version="1.0" encoding="utf-8"?>
<!-- Generator: Adobe Illustrator 18.0.0, SVG Export Plug-In . SVG Version: 6.00 Build 0)  -->
<!DOCTYPE svg PUBLIC "-//W3C//DTD SVG 1.1//EN" "http://www.w3.org/Graphics/SVG/1.1/DTD/svg11.dtd">
<svg version="1.1" id="Layer_1" xmlns="http://www.w3.org/2000/svg" xmlns:xlink="http://www.w3.org/1999/xlink" x="0px" y="0px"
	 viewBox="0 0 1000 1000" enable-background="new 0 0 1000 1000" xml:space="preserve">
<g>
	<path fill="#FFFFFF" d="M249,719c0-147.2,0-294.5,0-442c172.6,0,345.2,0,518,0c0,147.1,0,294.4,0,442C594.6,719,422,719,249,719z
		 M539.2,501.6c-0.6-1.2-0.8-2-1.2-2.6c-9.5-16.4-19-32.9-28.7-49.1c-0.9-1.5-3.9-2.7-5.9-2.7c-19.5-0.2-39,0-58.5-0.2
		c-3.9,0-5.7,1.4-7.5,4.5c-6.3,11.1-12.9,22.1-19.4,33.1c-3.2,5.4-6.3,10.9-9.8,17C452.3,501.6,495.3,501.6,539.2,501.6z
		 M539.5,508.9c-44.2,0-87.3,0-130.6,0c0.2,1,0.3,1.6,0.5,2.1c9.7,16.6,19.3,33.1,29.1,49.6c0.9,1.4,3.5,2.6,5.3,2.6
		c19.9,0.2,39.8,0.2,59.6,0c1.8,0,4.5-1.1,5.4-2.6C519.1,543.8,529,526.7,539.5,508.9z M516.7,323.7c10.5,18,20.4,35,30.6,51.9
		c0.8,1.3,3.2,2.4,4.9,2.4c19.7,0.1,39.3,0.1,59,0.1c3.4,0,5.7-1.1,7.5-4.5c4.5-8.5,9.6-16.6,14.5-24.9c4.8-8.2,9.5-16.4,14.6-25.1
		C603.8,323.7,560.8,323.7,516.7,323.7z M300.1,323.8c1.1,1.9,1.8,3.2,2.6,4.6c8.8,15,17.7,29.9,26.2,45c2.1,3.8,4.6,4.8,8.6,4.8
		c14.6-0.2,29.4-1.3,43.8,0.2c14.1,1.5,21.6-3.6,27.3-15.8c6.3-13.2,14.6-25.5,22.3-38.8C387.1,323.8,344,323.8,300.1,323.8z
		 M546,389.5c-10.2,17.2-20,33.6-29.5,50.3c-1.1,1.9-0.9,5.5,0.2,7.5c9.7,17,19.8,33.7,29.6,50.7c1.8,3.2,3.9,4,7.3,3.9
		c17.5-0.1,34.9,0,52.4-0.1c1.7,0,3.4-0.3,5.8-0.5C589.6,463.7,567.9,426.9,546,389.5z M611.9,508.6c-21.1,0-40.8-0.1-60.4,0.2
		c-1.7,0-3.9,1.9-4.8,3.5c-10.2,16.9-20.3,33.9-30.1,51.1c-1,1.8-1.1,5.2-0.1,6.9c9.6,16.8,19.5,33.5,29.6,50.6
		C567.8,583.6,589.5,546.6,611.9,508.6z M618.3,497c10.6-17.9,20.6-34.9,30.5-52c0.7-1.2,0-3.8-0.8-5.2c-9.8-17-19.8-33.8-29.5-50.8
		c-1.7-2.9-3.7-4.2-7.2-4.1c-10.8,0.2-21.5,0.1-32.3,0.1c-8.4,0-16.8,0-26.4,0C574.7,422.7,596.2,459.3,618.3,497z M401.5,496.9
		c10.1-17.1,19.5-33.3,29.2-49.4c2.1-3.4,2-5.9,0-9.2c-9.8-16.2-19.5-32.5-28.9-49c-2-3.5-4.5-4.4-8.2-4.4
		c-17.6,0.1-35.3,0-52.9,0.1c-1.3,0-2.5,0.2-4.6,0.4C358,422.7,379.5,459.3,401.5,496.9z M720.2,323.5c-20.9,0-40.6-0.1-60.3,0.1
		c-1.6,0-3.8,1.4-4.6,2.8c-10.3,17.2-20.5,34.4-30.3,51.8c-1.1,1.9-0.7,5.4,0.3,7.4c3.4,6.6,7.3,12.9,11.1,19.2
		c5.9,10,11.9,19.9,18.1,30.5C676.5,397.9,698,361.2,720.2,323.5z M444.2,570.6c22.1,37.6,43.5,74.1,65,110.7
		c0.9-0.5,1.4-0.6,1.6-0.9c9.9-16.7,19.7-33.3,29.4-50.1c0.7-1.2,0.4-3.4-0.4-4.7c-10-17.3-20.1-34.5-30.4-51.7
		c-0.9-1.5-3.3-3.2-5-3.2C484.9,570.5,465.2,570.6,444.2,570.6z M503.2,323.5c-20.8,0-40.3-0.1-59.7,0.2c-1.9,0-4.4,1.8-5.4,3.5
		c-10.2,16.9-20.2,34-30.1,51.1c-0.9,1.6-1.2,4.4-0.4,5.8c9.7,17,19.7,33.8,30,51.2C459.5,398,481.1,361.3,503.2,323.5z
		 M444.4,439.8c20.7,0,40,0.1,59.3-0.2c2.1,0,4.9-1.8,6-3.6c7.2-11.7,14.1-23.7,21-35.6c3.5-6,9.8-12.1,9.7-18.2
		c0-6.2-6.2-12.5-9.7-18.7c-0.5-0.9-0.9-1.8-1.5-2.6c-6.2-10.6-12.5-21.2-19.4-32.8C487.8,365.8,466.4,402.3,444.4,439.8z"/>
	<path d="M539.2,501.6c-43.8,0-86.8,0-131,0c3.5-6.1,6.6-11.6,9.8-17c6.5-11,13-22,19.4-33.1c1.8-3.1,3.6-4.6,7.5-4.5
		c19.5,0.2,39,0,58.5,0.2c2,0,5,1.2,5.9,2.7c9.8,16.3,19.2,32.7,28.7,49.1C538.4,499.7,538.6,500.4,539.2,501.6z"/>
	<path d="M539.5,508.9c-10.5,17.8-20.4,34.9-30.6,51.8c-0.9,1.4-3.5,2.5-5.4,2.6c-19.9,0.2-39.8,0.2-59.6,0c-1.8,0-4.5-1.2-5.3-2.6
		c-9.9-16.4-19.5-33-29.1-49.6c-0.3-0.5-0.3-1.1-0.5-2.1C452.2,508.9,495.3,508.9,539.5,508.9z"/>
	<path d="M516.7,323.7c44.1,0,87.1,0,131.1,0c-5.1,8.7-9.8,16.9-14.6,25.1c-4.9,8.3-10,16.4-14.5,24.9c-1.8,3.4-4.1,4.5-7.5,4.5
		c-19.7,0-39.3,0.1-59-0.1c-1.7,0-4.1-1.1-4.9-2.4C537.1,358.7,527.2,341.6,516.7,323.7z"/>
	<path d="M300.1,323.8c43.9,0,87,0,130.9,0c-7.7,13.3-16,25.6-22.3,38.8c-5.8,12.1-13.2,17.3-27.3,15.8c-14.4-1.6-29.2-0.4-43.8-0.2
		c-4,0.1-6.5-1-8.6-4.8c-8.5-15.2-17.5-30.1-26.2-45C301.9,327.1,301.1,325.7,300.1,323.8z"/>
	<path d="M546,389.5c21.9,37.4,43.6,74.2,65.6,111.9c-2.4,0.2-4.1,0.5-5.8,0.5c-17.5,0-34.9-0.1-52.4,0.1c-3.4,0-5.4-0.8-7.3-3.9
		c-9.7-17-19.9-33.7-29.6-50.7c-1.1-2-1.3-5.6-0.2-7.5C526,423.1,535.8,406.7,546,389.5z"/>
	<path d="M611.9,508.6c-22.3,38.1-44,75-65.9,112.2c-10.1-17.1-20-33.7-29.6-50.6c-1-1.8-0.9-5.1,0.1-6.9
		c9.8-17.1,19.9-34.1,30.1-51.1c1-1.6,3.2-3.5,4.8-3.5C571.1,508.5,590.8,508.6,611.9,508.6z"/>
	<path d="M618.3,497c-22.1-37.6-43.6-74.3-65.8-112c9.6,0,18,0,26.4,0c10.8,0,21.5,0.1,32.3-0.1c3.5-0.1,5.5,1.1,7.2,4.1
		c9.8,17,19.8,33.8,29.5,50.8c0.8,1.5,1.5,4,0.8,5.2C639,462.1,628.9,479,618.3,497z"/>
	<path d="M401.5,496.9c-22-37.5-43.5-74.1-65.4-111.5c2-0.2,3.3-0.4,4.6-0.4c17.6,0,35.3,0,52.9-0.1c3.7,0,6.2,0.9,8.2,4.4
		c9.4,16.4,19.1,32.7,28.9,49c2,3.3,2.1,5.8,0,9.2C420.9,463.5,411.5,479.7,401.5,496.9z"/>
	<path d="M720.2,323.5c-22.2,37.7-43.7,74.4-65.7,111.9c-6.3-10.6-12.2-20.5-18.1-30.5c-3.8-6.4-7.8-12.6-11.1-19.2
		c-1.1-2.1-1.4-5.5-0.3-7.4c9.9-17.4,20-34.6,30.3-51.8c0.8-1.4,3-2.8,4.6-2.8C679.5,323.4,699.2,323.5,720.2,323.5z"/>
	<path d="M444.2,570.6c21,0,40.6-0.1,60.3,0.1c1.7,0,4.1,1.7,5,3.2c10.3,17.1,20.4,34.4,30.4,51.7c0.7,1.3,1,3.5,0.4,4.7
		c-9.7,16.8-19.6,33.4-29.4,50.1c-0.2,0.3-0.6,0.4-1.6,0.9C487.8,644.7,466.3,608.2,444.2,570.6z"/>
	<path d="M503.2,323.5c-22.2,37.8-43.8,74.5-65.7,111.8c-10.3-17.5-20.2-34.3-30-51.2c-0.8-1.4-0.5-4.3,0.4-5.8
		c9.9-17.1,19.9-34.2,30.1-51.1c1-1.7,3.6-3.4,5.4-3.5C463,323.4,482.5,323.5,503.2,323.5z"/>
	<path d="M444.4,439.8c22-37.5,43.5-74,65.5-111.6c6.9,11.6,13.1,22.2,19.4,32.8c0.5,0.9,1,1.7,1.5,2.6c3.5,6.2,9.7,12.4,9.7,18.7
		c0,6-6.2,12.1-9.7,18.2c-7,11.9-13.8,23.8-21,35.6c-1.1,1.8-3.9,3.6-6,3.6C484.4,439.9,465.1,439.8,444.4,439.8z"/>
</g>
</svg>
